<svg xmlns="http://www.w3.org/2000/svg" viewBox="0 0 120 120"><defs><style>.cls-1{fill:#a7a37e;}</style></defs><title>contact-tel</title><g id="レイヤー_2" data-name="レイヤー 2"><g id="contact"><path class="cls-1" d="M85.19,0H34.81A8.82,8.82,0,0,0,26,8.81V111.19A8.82,8.82,0,0,0,34.81,120H85.19A8.82,8.82,0,0,0,94,111.19V8.81A8.82,8.82,0,0,0,85.19,0ZM30,16H90V92H30ZM34.81,4H85.19A4.82,4.82,0,0,1,90,8.81V12H30V8.81A4.82,4.82,0,0,1,34.81,4ZM85.19,116H34.81A4.81,4.81,0,0,1,30,111.19V96H90v15.19A4.81,4.81,0,0,1,85.19,116Z"/><path class="cls-1" d="M60,98a8,8,0,1,0,8,8A8,8,0,0,0,60,98Zm0,12a4,4,0,1,1,4-4A4,4,0,0,1,60,110Z"/><path class="cls-1" d="M52,10h8a2,2,0,0,0,0-4H52a2,2,0,0,0,0,4Z"/><path class="cls-1" d="M66,10h2a2,2,0,0,0,0-4H66a2,2,0,0,0,0,4Z"/><path class="cls-1" d="M113.23,9.14A2,2,0,1,0,110.4,12a19.19,19.19,0,0,1,0,27.1,2,2,0,1,0,2.83,2.83A23.19,23.19,0,0,0,113.23,9.14Z"/><path class="cls-1" d="M104.8,13.69A2,2,0,0,0,102,16.52a13.15,13.15,0,0,1,0,18.55,2,2,0,1,0,2.82,2.83,17.13,17.13,0,0,0,0-24.21Z"/><path class="cls-1" d="M9.6,12A2,2,0,0,0,6.77,9.14a23.19,23.19,0,0,0,0,32.76,2,2,0,0,0,1.42.59A2,2,0,0,0,9.6,39.07,19.19,19.19,0,0,1,9.6,12Z"/><path class="cls-1" d="M18,13.14a2,2,0,0,0-2.82,0,17.13,17.13,0,0,0,0,24.21A2,2,0,0,0,18,34.52,13.15,13.15,0,0,1,18,16,2,2,0,0,0,18,13.14Z"/></g></g></svg>