<svg xmlns="http://www.w3.org/2000/svg" viewBox="0 0 100 100"><defs><style>.cls-1{fill:#a7a37e;}</style></defs><title>contact-email</title><g id="レイヤー_2" data-name="レイヤー 2"><g id="contact"><path class="cls-1" d="M100,38.23a1.28,1.28,0,0,0-.07-.34,1.61,1.61,0,0,0-.09-.29,2.2,2.2,0,0,0-.17-.25,1.38,1.38,0,0,0-.22-.26s0-.06-.07-.08l-16-12.45V11.66a5,5,0,0,0-5-5H60.27L53,1.05a4.93,4.93,0,0,0-6.08,0L39.73,6.66H21.66a5,5,0,0,0-5,5v12.9L.64,37s0,.06-.07.08a1.38,1.38,0,0,0-.22.26,2.2,2.2,0,0,0-.17.25,1.61,1.61,0,0,0-.09.29,1.3,1.3,0,0,0-.07.33s0,.07,0,.1V95a5,5,0,0,0,1,2.94s0,0,0,0,0,0,.05,0a5,5,0,0,0,4,2H95a5,5,0,0,0,4-2l0,0,0,0A5,5,0,0,0,100,95V38.33S100,38.26,100,38.23ZM49,3.68a1.58,1.58,0,0,1,2,0l3.84,3H45.16Zm-43.58,93L49,62.81a1.61,1.61,0,0,1,2,0L94.58,96.66Zm91.25-2.59L53,60.18a5,5,0,0,0-6.08,0L3.33,94.07V40.87L30.64,62.08a1.67,1.67,0,1,0,2-2.64L4.94,37.9l11.72-9.12V41.66a1.67,1.67,0,0,0,3.34,0v-30A1.66,1.66,0,0,1,21.66,10H78.33A1.67,1.67,0,0,1,80,11.66v30a1.67,1.67,0,1,0,3.33,0V28.78L95.06,37.9,67.26,59.48a1.67,1.67,0,0,0,.38,2.87,1.64,1.64,0,0,0,1.66-.24L96.67,40.87v53.2Z"/><path class="cls-1" d="M70,40V33.33a20,20,0,1,0-20,20A1.67,1.67,0,0,0,50,50,16.67,16.67,0,1,1,66.66,33.33V40A3.33,3.33,0,0,1,60,40V33.33a1.67,1.67,0,0,0-3.34,0A6.67,6.67,0,1,1,50,26.66a1.67,1.67,0,0,0,0-3.33A10,10,0,1,0,56.74,40.7,6.65,6.65,0,0,0,70,40Z"/></g></g></svg>
