<svg xmlns="http://www.w3.org/2000/svg" viewBox="0 0 200 43.36"><defs><style>.cls-1{fill:#046380;}.cls-2{fill:#002f2f;}</style></defs><title>logo</title><g id="レイヤー_2" data-name="レイヤー 2"><g id="header"><path class="cls-1" d="M15.23,35.23c.94-8.19-1.86-15.6-7.5-22.4a33.61,33.61,0,0,0-6.84-6L0,6.2V0c11.81,5.32,17.74,14.81,20.6,26.72l8-4.65-4.94-2.45a61.63,61.63,0,0,0-4-8.39l19,10.59L18.8,33.17Z"/><path class="cls-1" d="M0,43.36V38.22L12.29,31a27.22,27.22,0,0,1,.27,5Z"/><path class="cls-1" d="M0,31.88V26.75L9.45,21.2a22.37,22.37,0,0,1,1.7,4.14Z"/><path class="cls-1" d="M0,20.32V15.14L3.54,13a25,25,0,0,1,3,3.36Z"/><path class="cls-2" d="M45.47,31.33c-.08-1.5-.19-2.72-.31-3.67A12.83,12.83,0,0,0,50.41,29a5.39,5.39,0,0,0,1.77-.29,2.49,2.49,0,0,0,1.21-.81,1.92,1.92,0,0,0,.39-1.17,2.06,2.06,0,0,0-.19-.91,4.16,4.16,0,0,0-.94-1.13c-.56-.54-1.57-1.43-3-2.67-.69-.6-1.17-1-1.43-1.29a10.76,10.76,0,0,1-1.36-1.51,5.14,5.14,0,0,1-.68-1.34,5,5,0,0,1-.2-1.42,4.81,4.81,0,0,1,.77-2.6,5.17,5.17,0,0,1,2.32-1.91A9.76,9.76,0,0,1,53,11.25a25.45,25.45,0,0,1,4.76.51c0,1,.14,2.2.29,3.52a11.9,11.9,0,0,0-4.24-.89,4,4,0,0,0-2.37.66,1.89,1.89,0,0,0-.92,1.53,1.76,1.76,0,0,0,.07.49,1.91,1.91,0,0,0,.19.5,3.32,3.32,0,0,0,.46.64,7.27,7.27,0,0,0,1,.91c.42.35.78.64,1.08.85l1.82,1.66a14,14,0,0,1,1.24,1.12,9.64,9.64,0,0,1,.94,1.05,5.25,5.25,0,0,1,.61,1,4,4,0,0,1,.33.93,4.76,4.76,0,0,1,.11,1,5.05,5.05,0,0,1-.57,2.34,4.85,4.85,0,0,1-1.66,1.8,6.85,6.85,0,0,1-2.36,1,13.21,13.21,0,0,1-2.72.27,19.1,19.1,0,0,1-2.2-.16C47.94,31.84,46.83,31.63,45.47,31.33Z"/><path class="cls-2" d="M67.37,31.75Q63.74,21.6,59.85,11.6l2.3,0,2.3,0,4.13,12.22,1.73,4.81c.38-.73.94-1.9,1.69-3.51s1.3-2.79,1.62-3.56c-.45-1.38-1-3-1.72-5s-1.3-3.61-1.82-5l2.2,0,2.2,0c.46,1.78,1,3.54,1.54,5.29.82-1.78,1.58-3.55,2.26-5.29l2.07,0,2.07,0q-.94,1.89-2.34,4.83t-2.26,4.9c.22.71.63,1.91,1.22,3.6s1,2.89,1.31,3.59l4-8.44,2.87-6.32.95-2.16,2.27,0,2.3,0-2.78,5.51L84.12,29l-1.3,2.74-2.7,0-2.71,0q-.89-3-1.93-5.85c-.93,1.92-1.82,3.87-2.65,5.85l-2.73,0Z"/><path class="cls-2" d="M93.35,31.75q.34-5.07.57-10.41t.22-8.16l0-1.58,2.47,0,2.26,0q-.6,7.77-.76,20.15l-2.17,0Z"/><path class="cls-2" d="M102.2,31.75q.28-2.64.43-5.93l.34-7.23c.12-2.62.17-4.95.17-7l2.91,0,2.58,0q1.68,2.91,4.61,7.59T118,26.94l.54-13.7c0-.32,0-.87,0-1.64l2.1,0,2.07,0L122.34,17l-.45,9.27-.18,5.46-2.61,0-2.78,0c-.49-.87-.86-1.52-1.12-1.94-.4-.65-1.27-2-2.59-4-.86-1.34-2-3.05-3.24-5.14q-1.44-2.29-2.46-4c-.07,1.59-.2,4.55-.36,8.87q-.1,2.64-.16,6.24l-2,0Z"/><path class="cls-2" d="M126,31.75l.4-5.13.29-6.43.2-6.39c0-.27,0-1,0-2.2l3.09,0c.72,0,1.66,0,2.84,0s2.19-.05,3-.05a23.17,23.17,0,0,1,3.23.21,8.46,8.46,0,0,1,2.59.77A7.4,7.4,0,0,1,143.62,14a7.83,7.83,0,0,1,1.33,1.9,10.28,10.28,0,0,1,.79,2.31,12.63,12.63,0,0,1,.27,2.61,13.4,13.4,0,0,1-.88,4.84,9.33,9.33,0,0,1-2.62,3.79,8.45,8.45,0,0,1-3.86,1.93,24.89,24.89,0,0,1-4.81.42l-5,0Zm4.53-3.14q1.22.06,2.4.06a23.69,23.69,0,0,0,2.48-.13,9.64,9.64,0,0,0,2-.42,5.26,5.26,0,0,0,1.66-1,6.24,6.24,0,0,0,1.36-1.67,7.91,7.91,0,0,0,.81-2.12,10,10,0,0,0,.29-2.38,7.8,7.8,0,0,0-.76-3.64,4.63,4.63,0,0,0-2-2,8.77,8.77,0,0,0-3.81-.63c-1.11,0-2.38,0-3.82.06Z"/><path class="cls-2" d="M148.71,31.75c.29-3,.53-6.26.7-9.89s.28-7.06.31-10.26l2.52,0,2.17,0q-.19,2.65-.36,6l-.3,5.93c-.09,1.69-.16,3.37-.2,5l2.55,0c2.38,0,4,0,4.7,0s1.49,0,2.22-.08c-.09,1-.17,2-.24,3.2l-6.64,0-4.65,0Z"/><path class="cls-2" d="M165,31.75l.43-5.65.31-6.54.19-5.95v-2q3.65,0,7.6,0h2.84l4.26,0-.17,3.19-1.41-.07c-.38,0-.91,0-1.59-.05h-5.06c-.44,0-1.12,0-2,.05L170.17,20c1.35,0,2.71,0,4.08,0,.94,0,2.54,0,4.79-.09-.08.9-.15,2-.21,3.22l-4.52,0c-1.16,0-2.61,0-4.34.09l-.24,5.52h1.63l3.24,0,3.21-.06,2.14-.1c-.1,1.14-.17,2.22-.21,3.23l-6.92,0-4.86,0Z"/><path class="cls-2" d="M183.49,31.75q.45-4.39.67-10.11c.15-3.81.22-7.15.22-10l3,0c.86,0,1.7,0,2.52,0s1.69-.05,2.6-.05a23.49,23.49,0,0,1,3.07.19,5.79,5.79,0,0,1,2.39.89,4.45,4.45,0,0,1,1.56,1.68,5,5,0,0,1,.51,2.31,6.2,6.2,0,0,1-.19,1.57,5.72,5.72,0,0,1-.57,1.4,5.11,5.11,0,0,1-.89,1.15,5.79,5.79,0,0,1-1,.79,6.52,6.52,0,0,1-1.16.49c-.43.14-1,.31-1.74.5l1,1.95c.33.62.94,1.73,1.85,3.34l1.49,2.61c.08.14.31.59.71,1.34l-2.38,0-2.51,0L193,27.83l-1-2.13-1.79-3.59c-.18-.33-.42-.83-.74-1.5a10.17,10.17,0,0,0,1.81.17,6.22,6.22,0,0,0,2.32-.41,3.27,3.27,0,0,0,1.61-1.28,3.4,3.4,0,0,0,.56-1.88,2.75,2.75,0,0,0-.24-1.15,2.26,2.26,0,0,0-.82-.9,3.32,3.32,0,0,0-1.38-.47,12.14,12.14,0,0,0-1.59-.11l-1.21,0h-1.89l-.27,6.07L188,31.75l-2.29,0Z"/></g></g></svg>