<svg xmlns="http://www.w3.org/2000/svg" viewBox="0 0 120 169.38"><defs><style>.cls-1{fill:#e44d26;}.cls-2{fill:#f16529;}.cls-3{fill:#ebebeb;}.cls-4{fill:#fff;}</style></defs><title>service-html5</title><g id="レイヤー_2" data-name="レイヤー 2"><g id="about"><polygon class="cls-1" points="10.92 155.78 0 33.29 120 33.29 109.07 155.76 59.93 169.38 10.92 155.78"/><polygon class="cls-2" points="60 158.97 99.71 147.96 109.05 43.3 60 43.3 60 158.97"/><polygon class="cls-3" points="60 88.73 40.12 88.73 38.75 73.35 60 73.35 60 58.33 59.95 58.33 22.33 58.33 22.69 62.36 26.38 103.75 60 103.75 60 88.73"/><polygon class="cls-3" points="60 127.75 59.93 127.77 43.2 123.25 42.13 111.27 34 111.27 27.05 111.27 29.16 134.85 59.93 143.4 60 143.38 60 127.75"/><path d="M11.16,0H18.8V7.54h7V0h7.64V22.84H25.78V15.19h-7v7.65H11.17V0Z"/><path d="M43.46,7.57H36.74V0H57.82V7.57H51.09V22.84H43.46V7.57Z"/><path d="M61.16,0h8L74,8l4.89-8h8V22.84h-7.6V11.52L74,19.64h-.13l-5.26-8.12V22.84H61.16Z"/><path d="M90.67,0h7.64V15.29h10.74v7.55H90.67Z"/><polygon class="cls-4" points="59.95 88.73 59.95 103.75 78.45 103.75 76.7 123.24 59.95 127.76 59.95 143.39 90.75 134.85 90.97 132.32 94.5 92.77 94.87 88.73 90.82 88.73 59.95 88.73"/><polygon class="cls-4" points="59.95 58.33 59.95 67.66 59.95 73.31 59.95 73.35 96.19 73.35 96.19 73.35 96.23 73.35 96.54 69.97 97.22 62.36 97.58 58.33 59.95 58.33"/></g></g></svg>