<svg xmlns="http://www.w3.org/2000/svg" viewBox="0 0 170 158.35"><defs><style>.cls-1{fill:#00749a;}.cls-2{fill:#464342;}</style></defs><title>service-wordpress</title><g id="レイヤー_2" data-name="レイヤー 2"><g id="about"><path class="cls-1" d="M76.53,141.22H67.77v.93c2.74,0,3.19.59,3.19,4.06v6.27c0,3.47-.44,4.11-3.19,4.11-2.1-.3-3.52-1.42-5.48-3.58L60,150.57c3-.54,4.65-2.45,4.65-4.6,0-2.69-2.3-4.75-6.6-4.75H49.47v.93c2.74,0,3.18.59,3.18,4.06v6.27c0,3.47-.44,4.11-3.18,4.11v.93h9.74v-.93c-2.74,0-3.18-.64-3.18-4.11v-1.77h.83l5.43,6.81H76.53c7,0,10-3.72,10-8.18S83.53,141.22,76.53,141.22Zm-20.5,8v-6.51h2a3.26,3.26,0,0,1,0,6.51ZM76.68,156h-.34c-1.76,0-2-.44-2-2.69V142.69h2.35c5.09,0,6,3.72,6,6.6S81.77,156,76.68,156Z"/><path class="cls-1" d="M22.22,151l3.37-10c1-2.88.54-3.71-2.59-3.71v-1h9.2v1c-3.08,0-3.82.73-5,4.3l-5.58,16.74h-.64L16,143l-5.09,15.32h-.63L4.8,141.61c-1.18-3.57-2-4.3-4.8-4.3v-1H10.86v1c-2.88,0-3.67.68-2.64,3.71l3.28,10,4.94-14.68h.93Z"/><path class="cls-1" d="M38.85,158.15c-5.38,0-9.78-4-9.78-8.81s4.4-8.76,9.78-8.76,9.79,4,9.79,8.76S44.24,158.15,38.85,158.15Zm0-16.05c-4.5,0-6.06,4.06-6.06,7.24s1.56,7.25,6.06,7.25,6.12-4,6.12-7.25S43.41,142.1,38.85,142.1Z"/><path class="cls-2" d="M98.65,156.54v1H87.45v-1c3.28,0,3.86-.83,3.86-5.73V143c0-4.89-.58-5.67-3.86-5.67v-1H97.58c5,0,7.83,2.59,7.83,6.06s-2.79,6-7.83,6H94.79v2.4C94.79,155.71,95.37,156.54,98.65,156.54Zm-1.07-18.45H94.79v8.51h2.79c2.74,0,4-1.91,4-4.21S100.32,138.09,97.58,138.09Z"/><path class="cls-2" d="M139,152.92l-.24.88c-.44,1.61-1,2.2-4.45,2.2h-.69c-2.54,0-3-.59-3-4.06v-2.25c3.81,0,4.11.34,4.11,2.88h.93v-7.29h-.93c0,2.55-.3,2.89-4.11,2.89v-5.48h2.69c3.47,0,4,.59,4.45,2.2l.25.93h.78l-.34-4.6H124.1v.93c2.74,0,3.18.59,3.18,4.06v6.27c0,3.17-.37,4-2.53,4.09-2.06-.31-3.47-1.43-5.4-3.56l-2.25-2.44c3-.54,4.65-2.45,4.65-4.6,0-2.69-2.3-4.75-6.61-4.75h-8.61v.93c2.74,0,3.18.59,3.18,4.06v6.27c0,3.47-.44,4.11-3.18,4.11v.93h9.74v-.93c-2.74,0-3.18-.64-3.18-4.11v-1.77h.83l5.43,6.81h20.12l.29-4.6Zm-25.93-3.72v-6.51h2a3.26,3.26,0,0,1,0,6.51Z"/><path class="cls-2" d="M149,158.15a7.3,7.3,0,0,1-4.41-1.66,3.57,3.57,0,0,0-.78,1.66h-.93V151.4h1a5.43,5.43,0,0,0,5.53,5.14c1.57,0,2.84-.88,2.84-2.35,0-1.27-1.13-2.25-3.13-3.18l-2.79-1.32c-2-.93-3.43-2.55-3.43-4.7,0-2.35,2.2-4.36,5.24-4.36a6.08,6.08,0,0,1,3.81,1.28,2.78,2.78,0,0,0,.64-1.33h.93v5.78h-1c-.34-2.3-1.61-4.21-4.21-4.21-1.37,0-2.64.78-2.64,2s1,2,3.38,3l2.69,1.32c2.35,1.13,3.28,2.94,3.28,4.41C154.93,156,152.24,158.15,149,158.15Z"/><path class="cls-2" d="M164,158.15a7.24,7.24,0,0,1-4.4-1.66,3.47,3.47,0,0,0-.79,1.66h-.93V151.4h1a5.43,5.43,0,0,0,5.53,5.14c1.57,0,2.84-.88,2.84-2.35,0-1.27-1.12-2.25-3.13-3.18l-2.79-1.32c-2-.93-3.43-2.55-3.43-4.7,0-2.35,2.21-4.36,5.24-4.36a6.14,6.14,0,0,1,3.82,1.28,2.79,2.79,0,0,0,.63-1.33h.93v5.78h-1c-.34-2.3-1.61-4.21-4.2-4.21-1.37,0-2.65.78-2.65,2s1,2,3.38,3l2.69,1.32c2.35,1.13,3.28,2.94,3.28,4.41C170,156,167.31,158.15,164,158.15Z"/><path class="cls-2" d="M31.71,64.24a55.12,55.12,0,0,0,31.06,49.6l-26.28-72A54.9,54.9,0,0,0,31.71,64.24Z"/><path class="cls-2" d="M124,61.46c0-6.81-2.45-11.53-4.54-15.2-2.8-4.54-5.42-8.38-5.42-12.92,0-5.07,3.85-9.78,9.26-9.78.24,0,.47,0,.71,0A55.09,55.09,0,0,0,40.78,34c1.29,0,2.51.07,3.55.07,5.76,0,14.68-.7,14.68-.7a2.28,2.28,0,0,1,.36,4.54s-3,.35-6.31.52L73.13,98.1,85.19,61.93,76.6,38.4c-3-.17-5.78-.52-5.78-.52-3-.18-2.62-4.72.35-4.54,0,0,9.1.7,14.52.7,5.76,0,14.69-.7,14.69-.7a2.28,2.28,0,0,1,.35,4.54s-3,.35-6.31.52l19.92,59.25,5.49-18.37C122.22,71.65,124,66.18,124,61.46Z"/><path class="cls-2" d="M87.79,69.06,71.26,117.11a55,55,0,0,0,33.87-.88,4.53,4.53,0,0,1-.39-.76Z"/><path class="cls-2" d="M135.18,37.8a41.8,41.8,0,0,1,.38,5.67c0,5.59-1.05,11.88-4.2,19.74l-16.83,48.67A55.1,55.1,0,0,0,135.18,37.8Z"/><path class="cls-2" d="M86.83,0a64.25,64.25,0,1,0,64.24,64.24A64.32,64.32,0,0,0,86.83,0Zm0,125.54a61.3,61.3,0,1,1,61.29-61.3A61.37,61.37,0,0,1,86.83,125.54Z"/></g></g></svg>