<svg xmlns="http://www.w3.org/2000/svg" viewBox="0 0 40 61.69"><defs><style>.cls-1{fill:#a7a37e;}</style></defs><title>mainvisual-arrow</title><g id="レイヤー_2" data-name="レイヤー 2"><g id="sp"><g id="mainvisual"><path class="cls-1" d="M20,51.82,9.21,40.39l3.5-3.31L20,44.8l7.26-7.72,3.51,3.31Zm20-4.59V14.46A14.48,14.48,0,0,0,25.54,0H14.46A14.48,14.48,0,0,0,0,14.46V47.23A14.48,14.48,0,0,0,14.46,61.69H25.54A14.48,14.48,0,0,0,40,47.23ZM25.54,4.82a9.65,9.65,0,0,1,9.64,9.64V47.23a9.65,9.65,0,0,1-9.64,9.64H14.46a9.65,9.65,0,0,1-9.64-9.64V14.46a9.65,9.65,0,0,1,9.64-9.64ZM20,9.76a2.41,2.41,0,1,0,2.41,2.41A2.41,2.41,0,0,0,20,9.76Zm0,9.64a2.41,2.41,0,1,0,2.41,2.41A2.41,2.41,0,0,0,20,19.4ZM20,29a2.41,2.41,0,1,0,2.41,2.41A2.4,2.4,0,0,0,20,29Z"/></g></g></g></svg>