<svg xmlns="http://www.w3.org/2000/svg" viewBox="0 0 140 150.56"><defs><style>.cls-1{fill:#0868ac;}.cls-2{fill:#131b28;}</style></defs><title>service-jquery</title><g id="レイヤー_2" data-name="レイヤー 2"><g id="about"><path class="cls-1" d="M25,23.7c-9.27,13.33-8.12,30.67-1,44.83.16.34.34.68.51,1s.22.43.34.64l.2.37.37.66c.22.39.45.77.68,1.16l.38.63c.26.42.52.82.79,1.23l.33.52c.37.55.75,1.1,1.14,1.64l0,0,.19.26,1,1.38.39.49c.31.4.63.79,1,1.18l.36.44c.44.51.88,1,1.34,1.52l0,0,.06,0c.44.49.89,1,1.35,1.43.14.15.29.3.44.44.35.36.71.71,1.08,1.06.15.14.29.29.44.42.49.46,1,.91,1.48,1.35l0,0a2.75,2.75,0,0,0,.26.22c.44.39.89.77,1.34,1.14l.56.45,1.12.87.6.46q.63.47,1.26.9l.46.33.13.09c.4.28.81.54,1.22.81l.53.35c.63.4,1.27.8,1.92,1.18l.53.3c.48.27,1,.54,1.44.8l.79.41,1,.54.24.11.42.21c.54.25,1.08.51,1.63.75l.35.16,1.9.79.46.18q.9.35,1.8.66l.23.08c.66.23,1.33.45,2,.66l.48.14a18.7,18.7,0,0,0,2.07.58c44.85,8.18,57.88-26.95,57.88-26.95C109.6,87,90.17,90.74,71.77,86.55c-.7-.16-1.37-.37-2-.58l-.51-.15c-.67-.2-1.33-.42-2-.64l-.27-.1-1.75-.65-.49-.19c-.63-.25-1.26-.51-1.88-.78l-.38-.17-1.58-.74-.46-.22c-.42-.2-.82-.41-1.23-.62l-.82-.43c-.5-.27-1-.55-1.47-.83l-.5-.28q-1-.57-1.92-1.17L54,78.66c-.46-.3-.92-.6-1.37-.91l-.44-.31-1.29-.93-.57-.43c-.39-.3-.78-.6-1.16-.91l-.52-.42c-.49-.4-1-.81-1.45-1.22L47,73.39c-.52-.45-1-.91-1.52-1.38l-.43-.41c-.37-.36-.74-.71-1.1-1.08l-.43-.43c-.45-.46-.9-.94-1.34-1.42l-.07-.07c-.46-.5-.92-1-1.36-1.55l-.36-.42-1-1.21L39.06,65c-.38-.5-.76-1-1.13-1.51C27.71,49.52,24,30.3,32.21,14.52"/><path class="cls-1" d="M53.76,12.47C47.05,22.12,47.42,35,52.65,45.25a43.44,43.44,0,0,0,3,5,23.62,23.62,0,0,0,3.46,4.31c.48.53,1,1.05,1.5,1.56.13.14.27.26.4.39.5.49,1,1,1.54,1.43l.06.06h0c.59.51,1.19,1,1.8,1.49l.41.32c.61.47,1.23.93,1.87,1.37l.06,0,.86.56c.13.09.26.19.4.27.46.3.92.58,1.39.85l.2.12,1.23.69.44.22c.28.15.57.31.86.45l.13.06q.88.43,1.8.84l.39.16q.73.31,1.47.6l.63.23,1.36.47.61.19a14.53,14.53,0,0,0,2,.57c34.63,5.74,42.63-20.93,42.63-20.93C115.86,56.91,101.9,61.86,87,58c-.66-.17-1.31-.36-2-.57l-.59-.19-1.37-.47-.62-.23c-.5-.19-1-.39-1.48-.6l-.4-.17c-.61-.26-1.21-.54-1.8-.83-.31-.15-.61-.31-.91-.47l-.52-.27c-.39-.2-.77-.42-1.15-.64l-.27-.16c-.47-.27-.93-.55-1.39-.84l-.42-.28-.9-.6c-.64-.44-1.26-.9-1.87-1.37L70.94,50A41.72,41.72,0,0,1,56.8,29.83c-2.58-8.28-2-17.56,2.44-25.1"/><path class="cls-1" d="M78,4.08a20.2,20.2,0,0,0-1.6,19.47A27.45,27.45,0,0,0,92.11,38.26l.86.3.38.12a9,9,0,0,0,1.23.35c19.13,3.7,24.31-9.81,25.69-11.8-4.54,6.55-12.18,8.12-21.54,5.84-.74-.18-1.56-.45-2.27-.7a27.27,27.27,0,0,1-2.69-1.12,27.46,27.46,0,0,1-4.72-2.88C80.67,22,75.46,9.88,80.93,0"/><path class="cls-2" d="M40,122.87h0l-1.12,4,1.12-4Z"/><path class="cls-2" d="M45.75,131.57h0Z"/><path class="cls-2" d="M45.44,137.56h0l-7.39,0,7.39,0Z"/><path class="cls-2" d="M47,131.58h0Z"/><path class="cls-2" d="M46.08,137.05l1.29-5-1.29,5Z"/><path class="cls-2" d="M73.27,114.2l-2.4,11.39Z"/><path class="cls-2" d="M67.11,114.2l-1.82,8.51,1.82-8.51Z"/><path class="cls-2" d="M72.86,113.69H67.74a.67.67,0,0,0-.63.51l-1.82,8.51-1.82,8.51a.67.67,0,0,1-.62.51H59.22c-3.59,0-3.17-2.51-2.44-5.95a.3.3,0,0,0,0-.1l.08-.43s0-.06,0-.08l.16-.89.18-.94c0-.29.13-.7.18-1l.83-4.08.83-4.09a.41.41,0,0,0-.41-.51H53.41a.67.67,0,0,0-.63.51l-1.13,5.43-1.13,5.42h0l-.11.5c-1.3,6-.95,11.75,6.13,11.93H67.85a.67.67,0,0,0,.63-.52l2.39-11.39,2.4-11.39a.4.4,0,0,0-.41-.51Z"/><path class="cls-2" d="M93.3,131.79a.42.42,0,0,1,.42.52l-.5,2.45"/><path class="cls-2" d="M92.72,137.22l.5-2.46-.5,2.47h0Z"/><path class="cls-2" d="M92.1,137.74h0c-1.51,0-6,0-9.45,0,4.15,0,9.45,0,9.45,0Z"/><path class="cls-2" d="M79.6,128.63c0-.27.3-.74.58-.74h-.64c-.29,2.93.06.75.06.75Z"/><path class="cls-2" d="M83.12,137.79h0Z"/><path class="cls-2" d="M93.3,131.79a.42.42,0,0,1,.42.52l-.5,2.45-.08.41"/><path class="cls-2" d="M85.55,137.78h0Z"/><path class="cls-2" d="M84.29,137.79h0Z"/><path class="cls-2" d="M83.91,137.79h0Z"/><path class="cls-2" d="M83.51,137.79h0Z"/><path class="cls-2" d="M84.22,137.79h0Z"/><path class="cls-2" d="M85.53,137.78h0Z"/><path class="cls-2" d="M92.1,137.74h0l-6.55,0Z"/><path class="cls-2" d="M92.72,137.23l.42-2.06-.42,2.06Z"/><path class="cls-2" d="M83.79,137.79h0Z"/><path class="cls-2" d="M83,137.79h0Z"/><path class="cls-2" d="M83.41,137.79h0Z"/><path class="cls-2" d="M8.46,128.69l.79-3.57-.91,4.08-.87,4.15.76-3.64c.06-.28.16-.74.23-1Z"/><path class="cls-2" d="M18,113.63H12.36a.69.69,0,0,0-.64.51l-.53,2.38-.53,2.38a.39.39,0,0,0,.4.51h5.67a.68.68,0,0,0,.63-.51l.51-2.38.52-2.38h0a.4.4,0,0,0-.41-.51Z"/><path class="cls-2" d="M16.76,121.55h0l-1.65,7.72Z"/><path class="cls-2" d="M.41,147.14s2.84,0,4.64,0l-4.64,0Z"/><path class="cls-2" d="M10.05,121.55l-.8,3.57Z"/><path class="cls-2" d="M16.35,121H10.68a.68.68,0,0,0-.63.51l-.8,3.57-.79,3.57c-.07.28-.17.74-.23,1l-.76,3.64L6.7,137c-.06.29-.18.74-.27,1,0,0-1.06,3.19-2.84,3.15H3.37l-1.54,0h0a.68.68,0,0,0-.64.5l-.59,2.5L0,146.62a.41.41,0,0,0,.4.52l4.64,0c4.45,0,6.8-2.49,8.3-9.66l1.76-8.24,1.65-7.72a.41.41,0,0,0-.41-.51Z"/><path class="cls-2" d="M96.91,137.5a.41.41,0,0,1-.4-.52l4.26-20.21"/><path class="cls-2" d="M102.84,137l1.73-8.62Z"/><path class="cls-2" d="M96.57,137.24a2.12,2.12,0,0,1,0-.77l2-9.59L96.51,137a.41.41,0,0,0,.4.52h.52c-.28,0-.83-.12-.86-.26Z"/><path class="cls-2" d="M102.51,137.38a2.5,2.5,0,0,1-.8.12h.52a.67.67,0,0,0,.62-.52l.1-.51c-.06.28-.29.85-.44.91Z"/><path class="cls-2" d="M103.71,132.67l.76-3.81h0l-.76,3.8Z"/><path class="cls-2" d="M120.54,118.13l.24,1a.4.4,0,0,1-.4.51"/><path class="cls-2" d="M103,136.47l.76-3.8Z"/><path class="cls-2" d="M120.31,117.12l.23,1Z"/><path class="cls-2" d="M104.47,128.86l.21-1,.81-3.86-.92,4.37-.1.5Z"/><path class="cls-2" d="M100.84,116.44c0,.28-.13.62-.18.85l-2,9.59,2.13-10.11.07-.33Z"/><path class="cls-2" d="M120.78,119.11l-.24-1-.23-1-.12-.51c-.46-1.81-1.81-2.85-4.75-2.85H101.92a.67.67,0,0,0-.62.51h0l-.21,1-.25,1.18-.07.33-2.13,10.11-2,9.59a2.12,2.12,0,0,0,0,.77c0,.14.58.26.86.26h4.28a2.5,2.5,0,0,0,.8-.12c.15-.06.38-.63.44-.91l.76-3.8.76-3.8h0l.1-.5.92-4.37.82-3.85a.67.67,0,0,1,.62-.51h13.45a.4.4,0,0,0,.4-.51Z"/><path class="cls-2" d="M138.09,110.23h-5.34a1.09,1.09,0,0,0-.81.44l-9.52,14.1c-.16.24-.34.2-.41-.08l-.7-3.11a.68.68,0,0,0-.63-.51h-6.12a.38.38,0,0,0-.37.51l2.74,9.71a2.3,2.3,0,0,1,0,1l-1.19,4.7a.39.39,0,0,0,.39.51h6a.71.71,0,0,0,.65-.51l1.19-4.7a3.18,3.18,0,0,1,.44-.93l15.45-20.74c.18-.23.08-.41-.2-.41Z"/><path class="cls-2" d="M89.48,122.4h0a.63.63,0,0,1-.61.54H81.12a.34.34,0,0,1-.37-.41v0h0s0,0,0,0l0-.14c.74-2,2.25-3.3,5.09-3.3,3.19,0,3.81,1.58,3.6,3.36Zm-2.28-9.06c-10,0-12.31,6.11-13.64,12.28s-1.21,12.17,9.1,12.17h2.89l6.55,0a.67.67,0,0,0,.62-.51l.42-2.06.08-.41.49-2.45a.41.41,0,0,0-.41-.52H84c-3.69,0-4.78-1-4.38-3.9H94.48a.62.62,0,0,0,.54-.38.7.7,0,0,0,0-.14h0c2.2-8.39,1.57-14-7.85-14Z"/><path class="cls-2" d="M40.14,122.36l-.14.51h0l-1.12,4-1.11,4a.73.73,0,0,1-.66.5H31.19c-4.49,0-5.58-3.55-4.49-8.78s3.24-8.69,7.65-9c6-.46,7.25,3.84,5.79,8.79Zm4.06,8.72s2.79-6.86,3.42-10.81c.87-5.3-1.75-13-11.89-13s-14.44,7.33-16.11,15.31.52,15.07,10.53,15l7.9,0,7.39,0a.74.74,0,0,0,.65-.51l1.28-5a.38.38,0,0,0-.38-.51H44.52a.32.32,0,0,1-.35-.37.23.23,0,0,1,0-.11Z"/><path class="cls-2" d="M94.06,126.49a.34.34,0,1,1-.34-.34A.34.34,0,0,1,94.06,126.49Z"/><path class="cls-1" d="M47.76,146l-1.65,3.81H44.28l.15-3.46-1.34,3.46H41.32l0-3.81.19-.94h1.25l-.24,3.76,1.39-3.76h1.75l-.13,3.81,1.38-3.81H48l-.2.94Z"/><path class="cls-1" d="M50.64,147.13c.16-.74.12-.88-.26-.88H49.8L49.44,148l-.57,1.82H47.81l.87-4.13.13-.61h1l.13.28A2.56,2.56,0,0,1,51,145c1.17,0,1.08.89.83,2.11Z"/><path class="cls-1" d="M54.11,144.47c-.47,0-.77-.14-.66-.72a.85.85,0,0,1,1-.72c.46,0,.77.14.64.72a.83.83,0,0,1-.94.72Zm-.51,5.34H52.55l.2-1.86.37-1.71-.73-.17.2-1h2l-1,4.75Z"/><path class="cls-1" d="M58.18,146.07l-1.32.16L56.48,148c-.1.5-.1.64.34.64h.88l-.18.95a6.12,6.12,0,0,1-1.15.25c-1.36,0-1.34-.76-1.1-1.88l.37-1.78-.74-.16.22-1h.77l.43-1.2h1l-.25,1.2H58.4l-.22,1Z"/><path class="cls-1" d="M60.93,146.13a1,1,0,0,0-1.07.91l1.77-.15c.08-.4,0-.76-.7-.76Zm-1.24,1.76c-.08.59.13.78.87.78h1.85l-.19.88a8.64,8.64,0,0,1-1.94.32c-2.05,0-2.07-1.17-1.81-2.43S59.2,145,61.19,145s2,1.18,1.54,2.9Z"/><path class="cls-1" d="M66.94,149.81H65.88l.21-1.86.75-3.53-.74-.17.22-1h2l-1.39,6.57Z"/><path class="cls-1" d="M70.75,146.13a1,1,0,0,0-1.07.91l1.77-.15c.08-.4,0-.76-.7-.76Zm-1.24,1.76c-.08.59.14.78.87.78h1.85l-.18.88a8.77,8.77,0,0,1-1.94.32c-2.06,0-2.08-1.17-1.81-2.43S69,145,71,145s2,1.18,1.53,2.9Z"/><path class="cls-1" d="M77.4,146.19H75.69c-.79,0-.87.24-.92.5l0,.23,2.48.19a7.2,7.2,0,0,1-.09,1.25,2.15,2.15,0,0,1-2.31,1.52,10,10,0,0,1-1.8-.27l.19-.91H74.9c.76,0,.87-.21.91-.42l.06-.3-2.43-.19a3.79,3.79,0,0,1,0-1.23A2.13,2.13,0,0,1,75.8,145a10.7,10.7,0,0,1,1.8.25l-.2.92Z"/><path class="cls-1" d="M82,146.19H80.3c-.78,0-.86.24-.92.5l0,.23,2.48.19a6.59,6.59,0,0,1-.1,1.25,2.14,2.14,0,0,1-2.3,1.52,10.13,10.13,0,0,1-1.81-.27l.2-.91h1.71c.76,0,.86-.21.91-.42l0-.3-2.43-.19a4.15,4.15,0,0,1,0-1.23A2.15,2.15,0,0,1,80.41,145a10.88,10.88,0,0,1,1.81.25l-.21.92Z"/><path class="cls-1" d="M83.45,150.56h-.91l0-.69c-.33,0-.5-.27-.42-.68a.82.82,0,0,1,.95-.71c.46,0,.77.13.64.71l-.29,1.37Z"/><path class="cls-1" d="M89.59,146.24c-.68,0-.92.41-1.09,1.18s-.11,1.22.58,1.22h1l.53-2.4Zm1.58,2.95-.13.62h-1l-.14-.3a4.63,4.63,0,0,1-1.42.37c-1.47,0-1.54-1.22-1.28-2.45s.84-2.44,2.3-2.44a4.34,4.34,0,0,1,1.24.27l.58-2h1.06l-1.25,5.95Z"/><path class="cls-1" d="M95,146.19c-.9,0-1.19.51-1.35,1.25s-.08,1.27.81,1.27,1.19-.5,1.35-1.27.12-1.25-.81-1.25Zm-.78,3.69c-1.9,0-2-1.2-1.79-2.44A2.66,2.66,0,0,1,95.22,145c1.88,0,2,1.18,1.79,2.42A2.66,2.66,0,0,1,94.19,149.88Z"/><path class="cls-1" d="M104.93,149.81l.21-1.84.1-.52c.15-.69.24-1.2-.48-1.2h-.56a4.74,4.74,0,0,1-.14,1.19l-.5,2.37H102.5l.2-1.83.11-.53c.15-.69.24-1.2-.49-1.2h-.45l-.76,3.56H99.88l1-4.75h1l.15.29a3.13,3.13,0,0,1,1.18-.35.86.86,0,0,1,.81.42,3.41,3.41,0,0,1,1.35-.42c1.47,0,1.42,1.21,1.16,2.44l-.49,2.37Z"/><path class="cls-1" d="M109.81,146.19c-.9,0-1.18.51-1.35,1.25s-.08,1.27.81,1.27,1.19-.5,1.35-1.27S110.74,146.19,109.81,146.19Zm-.78,3.69c-1.9,0-2-1.2-1.79-2.44a2.66,2.66,0,0,1,2.82-2.42c1.88,0,2,1.18,1.79,2.42A2.66,2.66,0,0,1,109,149.88Z"/><path class="cls-1" d="M115,147.13c.16-.74.11-.88-.26-.88h-.58l-.37,1.74-.56,1.82H112.2l.88-4.13.12-.61h1l.12.28a2.62,2.62,0,0,1,1.12-.33c1.17,0,1.08.89.82,2.11Z"/><path class="cls-1" d="M119.15,146.13a1,1,0,0,0-1.07.91l1.77-.15c.08-.4,0-.76-.7-.76Zm-1.24,1.76c-.08.59.14.78.87.78h1.85l-.18.88a8.77,8.77,0,0,1-1.94.32c-2.06,0-2.08-1.17-1.82-2.43s.74-2.45,2.72-2.45,2,1.18,1.54,2.9Z"/><path class="cls-1" d="M122,149.88c-.48,0-.78-.14-.65-.71a.82.82,0,0,1,1-.72c.45,0,.76.14.64.72A.84.84,0,0,1,122,149.88Z"/></g></g></svg>