<svg xmlns="http://www.w3.org/2000/svg" viewBox="0 0 120 169.38"><defs><style>.cls-1{fill:#264de4;}.cls-2{fill:#2965f1;}.cls-3{fill:#ebebeb;}.cls-4{fill:#fff;}</style></defs><title>service-css3</title><g id="レイヤー_2" data-name="レイヤー 2"><g id="about"><polygon id="polygon2989" class="cls-1" points="120 33.29 109.07 155.76 59.93 169.38 10.92 155.78 0 33.29 120 33.29"/><polygon id="polygon2991" class="cls-2" points="99.71 147.96 109.05 43.3 60 43.3 60 158.97 99.71 147.96"/><polygon id="polygon2993" class="cls-3" points="25.04 88.73 26.38 103.75 60 103.75 60 88.73 25.04 88.73"/><polygon id="polygon2995" class="cls-3" points="60 58.33 59.95 58.33 22.33 58.33 23.7 73.35 60 73.35 60 58.33"/><polygon id="polygon2997" class="cls-3" points="60 143.38 60 127.75 59.93 127.77 43.2 123.25 42.13 111.27 34 111.27 27.05 111.27 29.16 134.85 59.93 143.4 60 143.38"/><path id="path2999" d="M28.24,0h18.2V7.61H35.85v7.61H46.44v7.61H28.24Z"/><path id="path3001" d="M50.08,0H68.27V6.62H57.68V7.94H68.27V23.16H50.08V16.21H60.66V14.89H50.08Z"/><path id="path3003" d="M71.91,0H90.1V6.62H79.52V7.94H90.1V23.16H71.91V16.21H82.5V14.89H71.91Z"/><polygon id="polygon3005" class="cls-4" points="78.45 103.75 76.7 123.24 59.95 127.76 59.95 143.39 90.75 134.85 90.97 132.32 94.5 92.77 94.87 88.73 97.58 58.33 59.95 58.33 59.95 73.35 81.12 73.35 79.75 88.73 59.95 88.73 59.95 103.75 78.45 103.75"/></g></g></svg>